<?xml version="1.0" encoding="UTF-8"?>
<svg width="300" height="261.31" fill="none" version="1.1" viewBox="0 0 300 261.31" xmlns="http://www.w3.org/2000/svg" xmlns:cc="http://creativecommons.org/ns#" xmlns:dc="http://purl.org/dc/elements/1.1/" xmlns:rdf="http://www.w3.org/1999/02/22-rdf-syntax-ns#">
 <metadata>
  <rdf:RDF>
   <cc:Work rdf:about="">
    <dc:format>image/svg+xml</dc:format>
    <dc:type rdf:resource="http://purl.org/dc/dcmitype/StillImage"/>
    <dc:title/>
   </cc:Work>
  </rdf:RDF>
 </metadata>
 <g transform="scale(2.6633)">
  <path d="m112.64 64.529h-112.64v25.924h112.64z" fill="#f23f3a"/>
  <path d="m97.942 13.836-89.733 7.8506 6.6866 76.429 89.733-7.851z" fill="#f23f3a"/>
  <g fill="#fbfbfb">
   <path d="m10.323 69.754 4.2657 6.2562 4.3345-6.2562h6.4099v15.475h-7.1246v-5.0402l-2.9976 5.0402h-1.0149l-3.1589-5.0627v5.0627h-7.1014v-15.475h6.3867z"/>
   <path d="m34.878 69.754v15.475h-7.6317v-15.475z"/>
   <path d="m43.962 80.233c0.876 0 1.1299-0.1992 1.1299-0.464 0-1.2822-8.1851 0.2429-8.1851-5.1289 0-3.3383 2.8132-5.3275 7.5629-5.3275 2.6975 0 5.4413 0.6633 7.3321 1.8125l-2.1441 4.5318c-1.5219-0.7514-3.2046-1.2822-4.7034-1.2822-0.761 0-0.9917 0.1992-0.9917 0.4865 0 1.3041 8.0931-0.5309 8.0931 5.3718 0 3.2496-3.0433 5.4381-7.6316 5.4381-2.5825 0-6.1791-0.6633-8.2545-1.923l1.8215-4.9522c1.9597 0.9062 4.035 1.4371 5.9715 1.4371z"/>
   <path d="m66.719 69.754v5.1733h-5.4875v1.2822h5.1648v4.6867h-5.1648v4.3332h-7.6317v-15.475h13.119z"/>
   <path d="m75.827 69.754v15.475h-7.6316v-15.475z"/>
   <path d="m92.336 69.754v6.5879h-3.758v8.8868h-7.6316v-8.8868h-3.758v-6.5879h15.148z"/>
   <path d="m100.61 80.233c0.876 0 1.13-0.1992 1.13-0.464 0-1.2822-8.185 0.2429-8.185-5.1289 0-3.3383 2.813-5.3275 7.563-5.3275 2.697 0 5.441 0.6633 7.332 1.8125l-2.144 4.5318c-1.522-0.7514-3.205-1.2822-4.704-1.2822-0.761 0-0.991 0.1992-0.991 0.4865 0 1.3041 8.093-0.5309 8.093 5.3718 0 3.2496-3.043 5.4381-7.632 5.4381-2.582 0-6.179-0.6633-8.2542-1.923l1.8212-4.9522c1.96 0.9062 4.035 1.4371 5.972 1.4371z"/>
  </g>
  <path d="m50.905 0.0034632c14.318 0.22945 23.996 12.055 27.748 25.064 0 0 2.5324 4.5247 0.887 5.4971-2.1441 0.0482-2.0291-3.7226-3.1384-5.1571-4.4765-10.488-10.255-19.926-22.491-22.621-3.9257-0.54374-11.471 0.90173-11.064 5.922 4.4733 2.691 9.878 4.9316 13.615 8.9576 2.3028 2.0631 12.088 11.782 7.863 14.018-0.6659 0.3882-1.0059 0.3548-1.2424-0.3548-5.0203-9.9518-14.473-18.865-25.778-21.449-7.6933-1.146-18.986 0.5656-13.331 10.195 3.5677 2.2701 8.0185 2.3325 11.952 3.7561 5.1906 1.3902 9.8779 4.1661 13.512 8.0365 1.2386 0.8394 3.9894 5.7672 0.5656 4.233-13.135-15.675-29.559-6.4066-30.791-19.634 0.2623-8.3624 12.026-10.443 18.787-8.7724 3.6307 1.0649 2.551 0.732 2.5876-2.2553 1.2205-4.2104 6.2665-5.5486 10.321-5.4342l-0.0038-0.00386z" fill="#232122"/>
  <path d="m69.047 40.957c-0.2616 0.421-0.3805 0.421-0.7642 0.1324-3.3537-3.2014-8.525-4.0774-12.144-0.813-6.1662 6.1071-6.8173 17.659-2.7251 25.076 3.7445 8.2326 14.433 7.541 17.781-0.6363v-0.0032c1.5123 3.0086 5.3352 3.6262 8.3702 3.5928 6.7131 0.3664 8.9087-8.5462 9.6343-13.833 1.7328-12.152-10.548-28.403-20.152-13.515zm-14.077 20.89c-2.0804-6.9381-2.4661-20.21 6.8797-21.109-4.8242 9.7706 2.4147 8.9467 1.3606 12.363-1.0752 2.0002-2.7727 3.4566-0.6105 5.4085 5.7401 7.0873 8.2698-2.4455 7.9054-7.5352-0.0013-0.0045-0.0026-9e-3 -0.0045-0.0135h0.0032c0 0.0045 0.0013 9e-3 0.0013 0.0135 3.7901 11.847-8.5507 27.272-15.535 10.873zm20.392 3.0684c-1.3125-0.8645-3.2162-2.0773-3.0979-3.8628 1.3568-5.6597 1.394-11.852-1.7039-16.968 0.3027-3.0638 4.0132-6.8558 7.2769-6.7839 0-6e-4 0.0013-0.0025 0.0019-0.0032v0.0032h-0.0019c-1.4693 2.4244-1.5663 5.0152-1.5991 7.7596 0.0707 1.8227 2.5734 2.5175 3.5607 3.8261-0.2918 2.9648-4.296 5.9079 0.4396 8.3296 4.4772 2.6281 5.053-4.3113 5.9965-7.1759 2.085 6.8096-2.4924 18.832-10.873 14.876z" fill="#232122"/>
  <g fill="#fbfbfb">
   <path d="m75.362 64.915c-1.3124-0.8645-3.2162-2.0773-3.0979-3.8628 1.3568-5.6597 1.394-11.852-1.7039-16.968 0.3028-3.0638 4.0132-6.8558 7.2769-6.7839-1.4693 2.4244-1.5663 5.0152-1.5991 7.7596 0.0707 1.8227 2.5735 2.5175 3.5607 3.8261-0.2918 2.9648-4.296 5.9079 0.4396 8.3296 4.4772 2.6281 5.053-4.3113 5.9966-7.1759 2.0849 6.8096-2.4925 18.832-10.873 14.876z"/>
   <path d="m77.839 37.297v0.0041h-0.0017s8e-4 -0.0033 0.0017-0.0041z"/>
   <path d="m54.97 61.847c-2.0805-6.9382-2.4661-20.21 6.8796-21.109-4.8242 9.7706 2.4147 8.9466 1.3607 12.363-1.0753 2.0001-2.7727 3.4565-0.6106 5.4085 5.7401 7.0872 8.2698-2.4456 7.9054-7.5353 3.7901 11.847-8.5507 27.272-15.535 10.873z"/>
   <path d="m70.506 50.975c-7e-4 -5e-3 -0.0028-0.0101-0.0043-0.0151h0.0036c0 5e-3 7e-4 0.0101 7e-4 0.0151z"/>
  </g>
  <path d="m47.706 45.717-0.0039-0.0039c-0.4216-5.3673-6.0261-9.0456-11.098-8.9421-3.4122-0.6543-7.2974-0.7019-10.195 1.8003-3.8043 3.2907-2.5401 5.3082-3.5266 8.8238-2.5291 2.5285-2.4584 6.962-0.4069 9.7636 3.7741 5.2124 6.4915 0.6028 11.663 4.4142 5.7633 2.3581 10.699-2.9797 12.318-7.9704 2.0111-2.0336 1.4088-5.2793 1.2501-7.8855zm-1.8375 3.6082h-0.0033c-0.0713-1.0791-1.734-2.2321-2.1447-0.9538 0.115 1.4121 0.5135 2.7727 0.3143 4.2073-0.1151 5.3634-7.4157 10.303-11.712 5.9515 1.5451-1.261-0.1884-2.603-1.2861-1.8227-1.1531 1.1022-2.8395 1.2642-4.3666 1.3535-3.5562-0.5617-4.7022-6.6476-2.3363-9.1356 1.047-1.1048 4.3184-2.4461 1.3015-3.4597-1.2527-3.6892 3.8524-7.2306 7.39-7.2087 1.6415-0.3253 3.0355 1.0386 4.3441 1.8041 0.8317 1.1241 0.8651 2.9494 2.299 3.4417 2.3138 0.2031-0.1028-3.2823-0.6395-4.2297 4.6025 0.6851 7.4748 5.5936 6.8392 10.052z" fill="#232122"/>
  <g fill="#fbfbfb">
   <path d="m45.869 49.325h-0.0032c-0.0713-1.0791-1.734-2.2322-2.1447-0.9538 0.115 1.4121 0.5135 2.7727 0.3143 4.2072-0.1151 5.3635-7.4157 10.303-11.712 5.9516 1.545-1.261-0.1884-2.603-1.2861-1.8227-1.1531 1.1022-2.8396 1.2642-4.3667 1.3535-3.5561-0.5617-4.7021-6.6476-2.3362-9.1356 1.0469-1.1048 4.3184-2.4462 1.3015-3.4597-1.2527-3.6892 3.8524-7.2306 7.3899-7.2088 1.6415-0.3252 3.0356 1.0387 4.3442 1.8042 0.8317 1.1241 0.8651 2.9494 2.299 3.4417 2.3138 0.2031-0.1029-3.2823-0.6395-4.2297 4.6025 0.6851 7.4748 5.5936 6.8391 10.052z"/>
   <path d="m90.968 67.609c-1.3895 0-2.5207-1.1305-2.5207-2.5201 0-1.3895 1.1305-2.5207 2.5207-2.5207s2.5201 1.1305 2.5201 2.5207-1.1305 2.5201-2.5201 2.5201zm0-4.5678c-1.1312 0-2.0502 0.9191-2.0502 2.0503s0.919 2.0496 2.0502 2.0496 2.0497-0.9191 2.0497-2.0496c0-1.1306-0.9191-2.0503-2.0497-2.0503z"/>
   <path d="m91.438 66.033-0.3773-0.5444h-0.4152v0.5444h-0.4518v-1.9539h0.8477c0.1735 0 0.3246 0.0302 0.4512 0.0855 0.1266 0.0578 0.2256 0.1407 0.2944 0.2449 0.0687 0.1047 0.1047 0.2313 0.1047 0.3772s-0.0353 0.2693-0.1047 0.3767c-0.0688 0.1073-0.1678 0.187-0.297 0.2423l0.4377 0.6273zm-0.1157-1.4995c-0.0714-0.0578-0.1736-0.088-0.3105-0.088h-0.3689v0.6825h0.3689c0.135 0 0.2391-0.0302 0.3105-0.088 0.072-0.0604 0.1073-0.1434 0.1073-0.2507s-0.0353-0.1954-0.1073-0.2532z"/>
  </g>
 </g>
</svg>
